<svg xmlns:xlink="http://www.w3.org/1999/xlink"  xmlns="http://www.w3.org/2000/svg" width="16" height="16" viewBox="0 0 320 320" fill="none"><g clip-path="url(#newIbLogoB)"><path fill="url(#newIbLogoA)" fill-rule="evenodd" d="M71.72 12.789C71.72 5.726 77.446 0 84.51 0s12.789 5.726 12.789 12.789v17.29h102.491v-17.29C199.789 5.726 205.514 0 212.577 0c7.063 0 12.789 5.726 12.789 12.789v17.29h9.539a41.662 41.662 0 0 1 41.663 41.662v73.188c0 7.063-5.726 12.789-12.789 12.789s-12.788-5.726-12.788-12.789V71.741a16.084 16.084 0 0 0-16.086-16.085h-9.539v14.88c0 7.063-5.726 12.789-12.789 12.789s-12.788-5.726-12.788-12.789v-14.88H97.298v14.88c0 7.063-5.726 12.789-12.789 12.789S71.72 77.599 71.72 70.536v-14.88H61.662A16.086 16.086 0 0 0 45.577 71.74v173.87c0 8.537 6.92 15.458 15.458 15.458h100.407c7.063 0 12.788 5.726 12.788 12.789s-5.725 12.788-12.788 12.788H61.035C38.372 286.646 20 268.274 20 245.611V71.741a41.662 41.662 0 0 1 41.662-41.663H71.72v-17.29Zm108.092 183.237a16.812 16.812 0 0 0 12.401-12.784l15.92-74.101c.951-4.426 7.274-4.426 8.224 0l15.921 74.101a16.812 16.812 0 0 0 12.401 12.784l51.725 12.808c4.259 1.054 4.259 7.1 0 8.154l-51.725 12.808a16.809 16.809 0 0 0-12.401 12.784l-15.921 74.101c-.95 4.425-7.273 4.425-8.224 0l-15.92-74.101a16.81 16.81 0 0 0-12.401-12.784l-51.726-12.808c-4.258-1.054-4.258-7.1 0-8.154l51.726-12.808Zm-65.274-61.803c0 7.063-5.726 12.789-12.789 12.789H81.225c-7.063 0-12.788-5.726-12.788-12.789s5.725-12.788 12.788-12.788h20.524c7.063 0 12.789 5.725 12.789 12.788Zm55.35 12.789c7.063 0 12.788-5.726 12.788-12.789s-5.725-12.788-12.788-12.788h-20.524c-7.063 0-12.789 5.725-12.789 12.788 0 7.063 5.726 12.789 12.789 12.789h20.524Zm-55.35 41.394c0 7.063-5.726 12.789-12.789 12.789H81.225c-7.063 0-12.788-5.726-12.788-12.789s5.725-12.788 12.788-12.788h20.524c7.063 0 12.789 5.725 12.789 12.788Z" clip-rule="evenodd"></path></g><defs><linearGradient id="newIbLogoA" x1="345.658" x2="68.044" y1="355.374" y2="74.817" gradientUnits="userSpaceOnUse"><stop stop-color="#6B54FB"></stop><stop offset="0.37" stop-color="#AA2BBE"></stop><stop offset="0.75" stop-color="#FF5721"></stop></linearGradient><clipPath id="newIbLogoB"><path fill="#fff" d="M0 0h320v320H0z"></path></clipPath></defs></svg>